<svg width="50" height="50" viewBox="0 0 50 50" fill="none" xmlns="http://www.w3.org/2000/svg">
<rect width="50" height="50" rx="10" fill="#F43899"/>
<g clip-path="url(#clip0)">
<path d="M19.6094 26.427C19.6094 28.4028 21.0604 30.0113 22.8438 30.0113C24.6271 30.0113 26.0781 28.4028 26.0781 26.427C26.0781 24.4512 24.6271 22.8427 22.8438 22.8427C21.0604 22.8427 19.6094 24.4512 19.6094 26.427ZM24.6406 26.427C24.6406 27.6143 23.8365 28.5776 22.8438 28.5776C21.851 28.5776 21.0469 27.6143 21.0469 26.427C21.0469 25.2397 21.851 24.2764 22.8438 24.2764C23.8365 24.2764 24.6406 25.2397 24.6406 26.427Z" fill="white"/>
<path d="M36.5 25.1725C36.4955 23.3624 35.076 21.8705 33.2656 21.7764V20.6921C33.2656 20.2979 32.9422 19.9753 32.5469 19.9753H30.75V17.8247C30.75 17.4304 30.4266 17.1078 30.0312 17.1078H14.2188C13.8234 17.1078 13.5 17.4304 13.5 17.8247V18.5416C13.5 18.9358 13.8234 19.2584 14.2188 19.2584C14.6141 19.2584 14.9375 18.9358 14.9375 18.5416H29.3125V19.9753H14.2188C13.8234 19.9753 13.5 20.2979 13.5 20.6921V32.1619C13.5 32.5561 13.8234 32.8787 14.2188 32.8787H27.875C28.2703 32.8787 28.5938 32.5561 28.5938 32.1619C28.5938 31.7676 28.2703 31.445 27.875 31.445H18.4684C18.1584 29.6439 16.7434 28.2326 14.9375 27.9234V24.9261C16.7434 24.6169 18.1584 23.2056 18.4684 21.4045H28.3018C28.3602 21.7495 28.459 22.0855 28.5938 22.4081C28.751 22.771 29.1732 22.9368 29.5371 22.78C29.901 22.6232 30.0672 22.202 29.91 21.8391V21.8346C29.8516 21.6957 29.8021 21.5524 29.7662 21.4045H31.8281V22.0049C30.0762 22.6949 29.2182 24.6662 29.91 26.4136C29.9234 26.4494 29.9369 26.4808 29.9504 26.5166C28.3107 27.4485 27.7357 29.5319 28.6701 31.1672C29.6045 32.8026 31.6934 33.376 33.333 32.4441C34.8514 31.5839 35.4713 29.7201 34.775 28.1251C35.8441 27.5202 36.5 26.3912 36.5 25.1725ZM16.9994 31.445H14.9375V29.3885C15.9482 29.6529 16.7344 30.4369 16.9994 31.445ZM14.9375 23.4655V21.409H16.9994C16.7344 22.4171 15.9482 23.2011 14.9375 23.4655ZM31.6484 31.445C30.5568 31.445 29.6719 30.5669 29.6719 29.4781C29.6719 28.7165 30.1121 28.022 30.8039 27.6949C31.5092 28.3312 32.448 28.6448 33.3959 28.5597C33.908 29.5185 33.5396 30.7057 32.5828 31.212C32.2953 31.3688 31.9719 31.445 31.6484 31.445ZM33.0859 27.1439C31.9943 27.1439 31.1094 26.2612 31.1094 25.1725C31.1094 24.0838 31.9943 23.2011 33.0859 23.2011C34.1775 23.2011 35.0625 24.0838 35.0625 25.1725C35.0625 26.2612 34.1775 27.1439 33.0859 27.1439Z" fill="white"/>
<path d="M27.875 27.1439C28.272 27.1439 28.5938 26.8229 28.5938 26.427C28.5938 26.0311 28.272 25.7101 27.875 25.7101C27.478 25.7101 27.1562 26.0311 27.1562 26.427C27.1562 26.8229 27.478 27.1439 27.875 27.1439Z" fill="white"/>
<path d="M17.8125 27.1439C18.2095 27.1439 18.5312 26.8229 18.5312 26.427C18.5312 26.0311 18.2095 25.7101 17.8125 25.7101C17.4155 25.7101 17.0938 26.0311 17.0938 26.427C17.0938 26.8229 17.4155 27.1439 17.8125 27.1439Z" fill="white"/>
</g>
<defs>
<clipPath id="clip0">
<rect width="23" height="15.7843" fill="white" transform="translate(13.5 17.1078)"/>
</clipPath>
</defs>
</svg>
