<svg width="50" height="50" viewBox="0 0 50 50" fill="none" xmlns="http://www.w3.org/2000/svg">
<rect width="50" height="50" rx="10" fill="#F43899"/>
<g clip-path="url(#clip0)">
<path d="M14.2306 20.257C13.8312 20.257 13.5 20.5875 13.5 20.986V26.6717C13.5 27.0702 13.8312 27.4006 14.2306 27.4006C14.63 27.4006 14.9612 27.0702 14.9612 26.6717V20.986C14.9612 20.5778 14.63 20.257 14.2306 20.257Z" fill="white"/>
<path d="M29.71 16H26.6706C26.2712 16 25.9399 16.3305 25.9399 16.7289V17.3898L16.1593 20.2862C15.8476 20.3737 15.6333 20.6652 15.6333 20.986V26.6717C15.6333 26.7106 15.6333 26.7495 15.643 26.7786C15.643 26.7883 15.643 26.7883 15.643 26.7981C15.6528 26.8272 15.6528 26.8564 15.6625 26.8855L17.7375 33.4849C17.8349 33.7959 18.1272 34 18.4389 34C18.5071 34 18.585 33.9903 18.6532 33.9708L21.6731 33.0281C21.8582 32.9698 22.0141 32.8434 22.1017 32.6685C22.1894 32.4935 22.2089 32.2991 22.1505 32.1145L21.1276 28.8391L25.9497 30.2678V30.9287C25.9497 31.3272 26.2809 31.6577 26.6803 31.6577H29.7197C30.1191 31.6577 30.4503 31.3272 30.4503 30.9287V16.7289C30.4406 16.3305 30.1191 16 29.71 16ZM20.5333 31.8521L18.9162 32.3575L17.4745 27.7603L19.4423 28.3434L20.5333 31.8521ZM20.2314 27.0508C20.2314 27.0508 20.2216 27.0508 20.2314 27.0508L17.0945 26.1274V21.5205L25.9399 18.906V28.7419L20.2314 27.0508ZM28.9793 30.1901H27.4012V29.7138V17.9341V17.4579H28.9793V30.1901Z" fill="white"/>
<path d="M35.4185 27.9061L32.2525 26.3316C31.892 26.1469 31.4537 26.2927 31.2686 26.662C31.0835 27.0216 31.2296 27.459 31.5998 27.6436L34.7658 29.2182C34.873 29.2668 34.9801 29.2959 35.0873 29.2959C35.3601 29.2959 35.6133 29.1501 35.74 28.8974C35.9251 28.5281 35.7789 28.0907 35.4185 27.9061Z" fill="white"/>
<path d="M31.9313 21.4039C32.0385 21.4039 32.1554 21.3747 32.2528 21.3261L35.4188 19.7419C35.7793 19.5572 35.9254 19.1199 35.75 18.7603C35.565 18.4006 35.1266 18.2549 34.7661 18.4298L31.6001 20.0043C31.2397 20.189 31.0935 20.6263 31.2689 20.986C31.4053 21.2484 31.6586 21.4039 31.9313 21.4039Z" fill="white"/>
<path d="M35.7695 23.095H33.1295C32.7301 23.095 32.3989 23.4255 32.3989 23.824C32.3989 24.2225 32.7301 24.5529 33.1295 24.5529H35.7695C36.1689 24.5529 36.5002 24.2225 36.5002 23.824C36.5002 23.4255 36.1787 23.095 35.7695 23.095Z" fill="white"/>
</g>
<defs>
<clipPath id="clip0">
<rect width="23" height="18" fill="white" transform="translate(13.5 16)"/>
</clipPath>
</defs>
</svg>
