<svg width="50" height="50" viewBox="0 0 50 50" fill="none" xmlns="http://www.w3.org/2000/svg">
<rect width="50" height="50" rx="10" fill="#02B6E5"/>
<g clip-path="url(#clip0)">
<path d="M34.3797 19.2612L28.2703 14.6028C26.3477 13.1339 23.6568 13.1339 21.7342 14.6028L15.6248 19.2612C14.2951 20.2764 13.5 21.8802 13.5 23.5513V31.1116C13.5 34.0855 15.9168 36.5023 18.8906 36.5023H31.1094C34.0832 36.5023 36.5 34.0855 36.5 31.1116V23.5513C36.5 21.8802 35.7049 20.2764 34.3797 19.2612ZM34.7031 31.1071C34.7031 33.0882 33.0904 34.7009 31.1094 34.7009H18.8906C16.9096 34.7009 15.2969 33.0882 15.2969 31.1071V23.5513C15.2969 22.4372 15.827 21.3681 16.7119 20.6942L22.8213 16.0358C23.4637 15.5417 24.2318 15.2991 25 15.2991C25.7682 15.2991 26.5363 15.5417 27.1787 16.0313L33.2881 20.6897C34.173 21.3636 34.7031 22.4327 34.7031 23.5468V31.1071ZM32.767 24.544C33.068 24.9393 32.9916 25.5009 32.5963 25.8018L28.2658 29.1036C27.3045 29.8358 26.15 30.2042 24.9955 30.2042C23.841 30.2042 22.691 29.8358 21.7252 29.1036L17.4396 25.8378C17.0443 25.5368 16.968 24.9753 17.2689 24.58C17.5699 24.1847 18.1314 24.1083 18.5268 24.4093L22.8123 27.6751C24.0971 28.6544 25.8895 28.6544 27.1697 27.6751L31.5002 24.3733C31.9 24.0724 32.466 24.1487 32.767 24.544ZM21.4062 22.1677C21.4062 21.6735 21.8105 21.2692 22.3047 21.2692H24.1016V19.4723C24.1016 18.9782 24.5059 18.5739 25 18.5739C25.4941 18.5739 25.8984 18.9782 25.8984 19.4723V21.2692H27.6953C28.1895 21.2692 28.5938 21.6735 28.5938 22.1677C28.5938 22.6618 28.1895 23.0661 27.6953 23.0661H25.8984V24.863C25.8984 25.3571 25.4941 25.7614 25 25.7614C24.5059 25.7614 24.1016 25.3571 24.1016 24.863V23.0661H22.3047C21.8105 23.0661 21.4062 22.6663 21.4062 22.1677Z" fill="white"/>
</g>
<defs>
<clipPath id="clip0">
<rect width="23" height="22.9955" fill="white" transform="translate(13.5 13.5023)"/>
</clipPath>
</defs>
</svg>
