<svg width="81" height="95" viewBox="0 0 81 95" fill="none" xmlns="http://www.w3.org/2000/svg">
<path fill-rule="evenodd" clip-rule="evenodd" d="M23.1142 91.5582L24.7471 81.1458L21.1096 81.0607H3.73978L15.8112 4.22265C15.8488 3.98997 15.9704 3.77398 16.1479 3.62033C16.3263 3.46668 16.5537 3.38239 16.7916 3.38239H46.0798C55.8037 3.38239 62.5138 5.41324 66.0166 9.42227C67.6591 11.303 68.7051 13.2689 69.2115 15.4314C69.7424 17.7011 69.7512 20.4124 69.2334 23.7199L69.1958 23.9605V26.08L70.8383 27.0142C72.2211 27.7509 73.3205 28.5938 74.1636 29.5587C75.5682 31.1673 76.477 33.2113 76.8609 35.6338C77.258 38.1256 77.1268 41.0915 76.477 44.4491C75.7274 48.3106 74.5161 51.6743 72.8797 54.426C71.3753 56.9617 69.4582 59.0654 67.1816 60.695C65.0082 62.2439 62.4263 63.4195 59.5068 64.172C56.6775 64.9113 53.4519 65.2844 49.9141 65.2844H47.6348C46.0054 65.2844 44.4224 65.8736 43.1796 66.9298C41.9332 68.008 41.1094 69.4814 40.8566 71.0925L40.6843 72.0302L37.799 90.3835L37.6686 91.0569C37.6336 91.2702 37.5742 91.3765 37.4867 91.4485C37.4089 91.5143 37.2969 91.5582 37.1876 91.5582H23.1142Z" fill="#28356A"/>
<path fill-rule="evenodd" clip-rule="evenodd" d="M72.3951 24.2046C72.3085 24.7656 72.208 25.339 72.096 25.9281C68.2337 45.8363 55.0192 52.7138 38.1427 52.7138H29.5496C27.4855 52.7138 25.7459 54.2179 25.4249 56.2619L19.7793 92.2123C19.5703 93.5548 20.6006 94.7638 21.9492 94.7638H37.1902C38.9946 94.7638 40.5277 93.4477 40.812 91.6609L40.9616 90.8839L43.8312 72.6027L44.0157 71.6C44.2965 69.8071 45.8331 68.49 47.6375 68.49H49.9167C64.6828 68.49 76.2426 62.4721 79.6212 45.0557C81.0319 37.7805 80.3016 31.7055 76.567 27.4331C75.437 26.145 74.035 25.0756 72.3951 24.2046Z" fill="#298FC2"/>
<path fill-rule="evenodd" clip-rule="evenodd" d="M68.3525 22.5878C67.7622 22.4148 67.1534 22.2585 66.529 22.1171C65.901 21.9793 65.2581 21.8573 64.5961 21.7501C62.2792 21.3743 59.7402 21.1961 57.021 21.1961H34.0651C33.4992 21.1961 32.9622 21.3243 32.482 21.5561C31.4229 22.0671 30.6366 23.0733 30.4459 24.3052L25.5621 55.3571L25.4221 56.2624C25.7431 54.2183 27.4827 52.7143 29.5468 52.7143H38.1399C55.0164 52.7143 68.231 45.8333 72.0932 25.9286C72.2087 25.3395 72.3058 24.7661 72.3924 24.2051C71.4154 23.6844 70.3571 23.2393 69.2175 22.8599C68.9359 22.766 68.6455 22.6756 68.3525 22.5878Z" fill="#22284F"/>
<path fill-rule="evenodd" clip-rule="evenodd" d="M30.4468 24.3054C30.6375 23.0736 31.4238 22.0674 32.4829 21.5599C32.9666 21.3272 33.5001 21.199 34.066 21.199H57.022C59.7411 21.199 62.2801 21.3781 64.597 21.7539C65.2591 21.8602 65.9019 21.9831 66.5299 22.1209C67.1544 22.2614 67.7631 22.4186 68.3535 22.5907C68.6464 22.6785 68.9368 22.7698 69.2211 22.8602C70.3607 23.2395 71.4198 23.6882 72.3968 24.2053C73.546 16.8484 72.3872 11.8393 68.4252 7.3035C64.0565 2.30934 56.1727 0.172241 46.0841 0.172241H16.795C14.7344 0.172241 12.9764 1.67629 12.6581 3.72382L0.458985 81.352C0.218467 82.8876 1.39832 84.2731 2.94114 84.2731H21.0229L30.4468 24.3054Z" fill="#28356A"/>
</svg>
